<?xml version="1.0" encoding="UTF-8"?>
<svg id="Calque_1" xmlns="http://www.w3.org/2000/svg" version="1.1" viewBox="0 0 50.33 64">
  <!-- Generator: Adobe Illustrator 29.6.1, SVG Export Plug-In . SVG Version: 2.1.1 Build 9)  -->
  <defs>
    <style>
      .st0 {
        fill: #fa9508;
      }

      .st1 {
        fill: #fb970a;
      }
    </style>
  </defs>
  <path class="st0" d="M27.64,19.95c2.4.81,2.89,3.45,4.04,5.4,2.73,4.62,7.66,7.76,11.29,11.68,4.88,5.28,11.65,16.17,3.68,21.82-5.72,4.06-16.3,1.88-23.05,1.72-7.98-.19-16.11.59-23.59,3.42-.06-.26.08-.16.19-.23,7.65-5.03,19.44-5.69,28.34-5.28,5.38.25,15.36,2.09,18.6-3.61,3.13-5.53-2.89-13.48-6.54-17.37-3.43-3.65-7.77-6.41-10.38-10.79-1.53-2.58-1.89-5.36-5.05-6.53-.32-.18-2.39-.47-1.19-.62,1.34-.17,2.96.07,3.9,1.14l-.24-.76Z"/>
  <path class="st1" d="M8.56,1.96c.42,3.13,5.1,3.88,6.56,6.3,2.16-.42,4.42-.54,6.58,0,2.15-3.16,7.72-3.43,7.08-8.24.22-.06.16.04.22.12.73.94.79,1.91.4,3.01.63-.57.82-1.25,1-2.04.03-.11.03-.31.19-.14.05.05.2,1.02.2,1.19-.02,1.21-.91,2.25-1.8,2.96.31,1.88.42,3.81-.13,5.65-.12.4-.72,1.54-.73,1.74,0,.13,1.03,2.03,1.19,2.41.63,1.54,1.22,3.8,1.09,5.46,0,.1.05.32-.14.24-.17-.07-.72-.76-.95-.95-.6-.48-1.33-.78-2.01-1.12l-2.21-.64.71-.23c1.01-.07,1.94.05,2.89.38-.33-2.09-1.31-4-2.46-5.74.32-.64.67-1.15.92-1.83.14-.38.5-1.53.5-1.87v-2.71c-.62.18-1.36.61-1.93.97-1.12.71-2.36,1.64-2.82,2.92-2.09-.6-4.33-.73-6.49-.46-.81.1-1.62.39-2.42.45-.92-1.85-2.99-2.8-4.66-3.88-.22,1.66-.03,3.22.59,4.77.13.33.84,1.5.83,1.63-.01.22-.87,1.37-1.06,1.7-.72,1.27-1.2,2.57-1.5,4,1.21-.24,2.31-.47,3.56-.24.12.02.31.03.14.19-.06.06-1.37.28-1.66.38-1,.33-1.92.89-2.75,1.52l-.81.76c-.19-2.86.75-5.64,2.26-8.04-1.28-2.29-1.41-4.82-.94-7.37-.98-1.17-1.83-2.2-1.23-3.83.03-.09.07-.3.2-.13.03.04.08.68.17.92.12.34.4.83.68,1.07-.18-.95-.2-2.03.49-2.78.08-.09.08-.2.27-.16.05.52-.07,1.15,0,1.66Z"/>
  <path class="st0" d="M29.63,35.24c.07.07.4,1.37.45,1.6.37,1.73.34,3.38.32,5.14,2.97-2.57,6.95-2.74,10.16-.47.02.16-.22.1-.32.08-2.07-.28-3.69-.58-5.72.28-4.93,2.08-6.65,8.94-2.35,12.55,1.02.86,2.01,1.22,3.18,1.76.14.07.23-.01.19.23-4.48-.61-9.01-1.05-13.48-.09-.04-.16.07-.19.14-.28.39-.5.98-.97,1.41-1.53,3.92-4.99,5.74-12.86,5.85-19.12-.07-.16.14-.19.19-.14Z"/>
  <path class="st0" d="M13.3,21.38l-1,1.51c-3.66,8.4,3.37,15.55,3.75,23.79.17,3.65-.79,7.19-2.87,10.18-1.09.08-2.13.4-3.18.66-.18.05-.37-.01-.53.02-.06.01-.08.36-.25.19-.13-.13.85-.8.95-.9,3.79-3.5,4.22-8.8,3.16-13.61-.93-4.23-3.34-8.01-3.99-12.34-.34-2.28-.48-6.88,1.4-8.52.68-.59,1.66-.99,2.56-1Z"/>
  <path class="st0" d="M15.39,35.14l.84,1.77c1.01,1.89,2.25,3.56,3.81,5.02.38.36.9.48.96,1.04.36,3.53-1.4,8.98-3.71,11.68-.23.27-1.72,1.78-1.99,1.57,1.43-2.18,2.47-4.64,2.99-7.21.31-1.55.39-2.84.43-4.41,0-.19.11-.37.1-.57-.02-.34-1.27-1.69-1.57-2.14-.62-.97-1.86-3.69-1.86-4.79v-1.95Z"/>
  <path class="st1" d="M26.5,26.41c.05-.96.03-1.9-.76-2.56.16,3.43-3.52,5.46-6.55,5.6.81-.57,1.73-1,2.51-1.61,1.78-1.39,3.51-3.76,2.33-6.07,1.66-.43,3.26,1.39,3.13,2.99-.04.48-.3,1.33-.66,1.66Z"/>
  <path class="st1" d="M20.23,19c.22.99-1.56,1.29-1.13,2.12.39.76,1.6.79,2.32.54.18-.06.67-.48.61-.15-.05.3-1.27,1.27-1.42,1.71-1.06,1.06-3.05,1.09-4.13.04-.28-.27-.47-.71-.71-1-.17-.2-.75-.52-.85-.76-.05-.12.02-.18.14-.14.25.08.51.36.9.43.63.12,2.45-.26,2.12-1.07-.21-.51-1.32-.74-1.26-1.64.42.21.6-.08.9-.1.45-.03,1.17-.03,1.62,0,.23.02.37.17.49.18.16.02.23-.23.41-.17ZM18.41,21.77c-.26.15-.48.36-.76.48-.31.13-1.08.1-.26.5.39.19,1.31.27,1.76.24.35-.02.72-.32,1-.53-.59-.2-1.12-.63-1.73-.7Z"/>
  <path class="st1" d="M13.4,19.57c.03.19.02.16-.12.21-.31.13-.76.12-1.1.23-1.71.55-3.39,2.04-4.09,3.7-.25.6-.28,1.16-.48,1.71-.03.1-.06.29-.2.13-.05-.06-.27-1.47-.28-1.66-.07-1.11.28-2.48,1.09-3.28.2-.2.89-.73,1.14-.76.31-.04,0,.49.28.38.12-.05.3-.25.53-.33,1.09-.41,2.07-.5,3.23-.33ZM9.36,20.33v.09c.06-.03.06-.06,0-.09Z"/>
  <path class="st1" d="M16.53,16.53c-.3-.07-.5-.31-.83-.36-.57-.09-1.03.13-1.74-.07-1.09-.3-.93-.85-1.52-1.42-.21-.2-.51-.27-.72-.41-.09-.06-.17,0-.12-.21,2.13-.32,4.7-.21,4.94,2.47ZM14.35,14.73s-.45.02-.57,0c-.06.46.17.9.66.95-.06-.16-.06-.91-.09-.95Z"/>
  <path class="st1" d="M25.36,14.07c.14.14-.05.16-.12.21-.77.49-.58.45-1.11,1.07-1.21,1.41-2.36.39-3.27,1.01-.16.11-.08.34-.34.27.11-1.48,1-2.52,2.52-2.66.31-.03,2.2-.03,2.32.09ZM23.27,14.64l-.53.09c.07.42.06.57-.14.95.52-.04.75-.57.66-1.04Z"/>
  <path class="st1" d="M9.98,7.52c.15,1.37.52,2.72,1.04,3.99-.15.16-.68-.72-.74-.83-.41-.74-.64-1.8-.59-2.64,0-.08.1-.76.28-.52Z"/>
</svg>